<svg width="26" height="23" viewBox="0 0 26 23" fill="none" xmlns="http://www.w3.org/2000/svg">
<path d="M20.8212 0.0474854L15.2346 5.63408V17.9246L20.8212 12.8966V0.0474854ZM23.0558 4.51676V19.6006C21.8268 19.2095 20.486 19.0419 19.1452 19.0419C17.2458 19.0419 14.5084 19.7682 13 20.7179V5.63408C11.3799 4.40503 9.03349 3.9581 6.85472 3.9581C4.67595 3.9581 2.32958 4.40503 0.709473 5.63408V22.0028C0.709473 22.2821 0.988802 22.5615 1.26813 22.5615C1.37986 22.5615 1.43573 22.5056 1.54746 22.5056C3.05584 21.7793 5.23461 21.2765 6.85472 21.2765C9.03349 21.2765 11.3799 21.7235 13 22.9525C14.5084 22.0028 17.2458 21.2765 19.1452 21.2765C20.9888 21.2765 22.8882 21.6117 24.4525 22.4497C24.5642 22.5056 24.6201 22.5056 24.7318 22.5056C25.0111 22.5056 25.2905 22.2263 25.2905 21.9469V5.63408C24.6201 5.13128 23.8938 4.79609 23.0558 4.51676ZM10.7653 19.5C9.36869 19.1425 7.97204 19.0419 6.85472 19.0419C5.67037 19.0419 4.26255 19.2542 2.94411 19.6006V6.89665C3.96087 6.44972 5.33517 6.19274 6.85472 6.19274C8.37428 6.19274 9.74858 6.44972 10.7653 6.89665V19.5Z" fill="#F5F5F5"/>
</svg>
