<svg width="26" height="25" viewBox="0 0 26 25" fill="none" xmlns="http://www.w3.org/2000/svg">
<path d="M11.2442 0.823975C9.8472 0.823975 8.50742 1.28528 7.5196 2.10641C6.53178 2.92754 5.97683 4.04123 5.97683 5.20248H0.709473V6.66198V22.7165V24.176H16.5115V22.7165H2.46526V6.66198H5.97683V8.24976C5.46394 8.4005 5.01979 8.67955 4.7054 9.04859C4.39101 9.41763 4.22181 9.85854 4.22104 10.3107C4.22104 10.8914 4.49852 11.4482 4.99243 11.8588C5.48634 12.2693 6.15623 12.5 6.85472 12.5C7.55322 12.5 8.22311 12.2693 8.71702 11.8588C9.21093 11.4482 9.4884 10.8914 9.4884 10.3107C9.48764 9.85854 9.31844 9.41763 9.00405 9.04859C8.68966 8.67955 8.24551 8.4005 7.73262 8.24976V6.66198H14.7558V8.24976C14.2429 8.4005 13.7987 8.67955 13.4843 9.04859C13.1699 9.41763 13.0007 9.85854 13 10.3107C13 10.8914 13.2775 11.4482 13.7714 11.8588C14.2653 12.2693 14.9352 12.5 15.6337 12.5C16.3321 12.5 17.002 12.2693 17.4959 11.8588C17.9899 11.4482 18.2673 10.8914 18.2673 10.3107C18.2666 9.85854 18.0974 9.41763 17.783 9.04859C17.4686 8.67955 17.0244 8.4005 16.5115 8.24976V6.66198H20.0231V15.419H21.7789V6.66198V5.20248H16.5115C16.5115 4.04123 15.9566 2.92754 14.9688 2.10641C13.981 1.28528 12.6412 0.823975 11.2442 0.823975ZM11.2442 2.28348C12.1755 2.28348 13.0687 2.59101 13.7272 3.13843C14.3858 3.68585 14.7558 4.42831 14.7558 5.20248H7.73262C7.73262 4.42831 8.10259 3.68585 8.76113 3.13843C9.41968 2.59101 10.3129 2.28348 11.2442 2.28348ZM6.85472 9.58099C7.08756 9.58099 7.31085 9.65787 7.47549 9.79473C7.64013 9.93158 7.73262 10.1172 7.73262 10.3107C7.73262 10.5043 7.64013 10.6899 7.47549 10.8268C7.31085 10.9636 7.08756 11.0405 6.85472 11.0405C6.62189 11.0405 6.3986 10.9636 6.23396 10.8268C6.06932 10.6899 5.97683 10.5043 5.97683 10.3107C5.97683 10.1172 6.06932 9.93158 6.23396 9.79473C6.3986 9.65787 6.62189 9.58099 6.85472 9.58099ZM15.6337 9.58099C15.8665 9.58099 16.0898 9.65787 16.2544 9.79473C16.4191 9.93158 16.5115 10.1172 16.5115 10.3107C16.5115 10.5043 16.4191 10.6899 16.2544 10.8268C16.0898 10.9636 15.8665 11.0405 15.6337 11.0405C15.4008 11.0405 15.1775 10.9636 15.0129 10.8268C14.8483 10.6899 14.7558 10.5043 14.7558 10.3107C14.7558 10.1172 14.8483 9.93158 15.0129 9.79473C15.1775 9.65787 15.4008 9.58099 15.6337 9.58099ZM20.0231 16.8785V19.7975H16.5115V21.257H20.0231V24.176H21.7789V21.257H25.2905V19.7975H21.7789V16.8785H20.0231Z" fill="#F5F5F5"/>
</svg>
