<?xml version="1.0"?>
<svg xmlns="http://www.w3.org/2000/svg" xmlns:xlink="http://www.w3.org/1999/xlink" xmlns:svgjs="http://svgjs.com/svgjs" version="1.1" width="512" height="512" x="0" y="0" viewBox="0 0 340 340" style="enable-background:new 0 0 512 512" xml:space="preserve" class=""><g><path d="m40.35 332.394a26.983 26.983 0 0 0 17.187-47.784 4 4 0 1 0 -5.1 6.165 18.983 18.983 0 1 1 -12.088-4.346 4 4 0 0 0 4-4v-56.084a4 4 0 0 0 -8 0v52.382a26.983 26.983 0 0 0 4 53.667z" fill="#c0724a" data-original="#000000"/><path d="m40.35 213.792a20.259 20.259 0 0 0 18.082-11.183l172.025 56.578a4 4 0 0 0 2.5-7.6l-172.424-56.709c.029-.444.068-.886.068-1.337a20.252 20.252 0 1 0 -20.251 20.251zm0-32.5a12.251 12.251 0 1 1 -12.25 12.249 12.265 12.265 0 0 1 12.25-12.251z" fill="#c0724a" data-original="#000000"/><path d="m264.767 283.223a18.708 18.708 0 1 0 -7.092-36.009l-72.027-91.8a4 4 0 0 0 -6.294 4.939l71.746 91.435a18.677 18.677 0 0 0 13.672 31.435zm0-29.415a10.708 10.708 0 1 1 -10.708 10.708 10.721 10.721 0 0 1 10.708-10.708z" fill="#c0724a" data-original="#000000"/><path d="m163.373 147.7a17.563 17.563 0 0 0 17.5-20.162l52.277-20.246a4 4 0 1 0 -2.889-7.46l-52.258 20.239a17.69 17.69 0 1 0 -14.63 27.629zm0-27.388a9.694 9.694 0 1 1 -9.693 9.688 9.706 9.706 0 0 1 9.693-9.693z" fill="#c0724a" data-original="#000000"/><path d="m266.463 105.137c13.115 0 23.39-6.812 23.39-15.507 0-7.789-8.246-14.062-19.39-15.286v-57.4c3.824-1.124 11.488-2.639 17.617.8a36.647 36.647 0 0 0 19.179 4.956 35.783 35.783 0 0 0 11.374-1.819v27.931c-3.512 2.18-7.391 2.511-11.673 2.671a28.745 28.745 0 0 1 -14.97-3.944 24.1 24.1 0 0 0 -6.321-2.427 4 4 0 1 0 -1.814 7.792 16.085 16.085 0 0 1 4.225 1.615 37.1 37.1 0 0 0 18.02 4.981c.388 0 .773-.007 1.159-.021 4.62-.173 11.6-.433 17.884-5.494a4 4 0 0 0 1.49-3.115v-36.784a4 4 0 0 0 -6.51-3.115c-3.9 3.14-8.266 3.547-13.163 3.73a28.683 28.683 0 0 1 -14.97-3.944c-12.048-6.749-26.511-.6-27.122-.332a4 4 0 0 0 -2.4 3.668v82.752c-6.723-.965-11.39-4.234-11.39-7.215 0-1.745 1.619-3.217 2.583-3.939a4 4 0 0 0 -4.8-6.4c-3.731 2.8-5.786 6.468-5.786 10.342-.002 8.692 10.273 15.504 23.388 15.504zm4-22.723c6.724.966 11.39 4.235 11.39 7.216s-4.666 6.25-11.39 7.215z" fill="#c0724a" data-original="#000000"/></g></svg>
