<?xml version="1.0"?>
<svg xmlns="http://www.w3.org/2000/svg" xmlns:xlink="http://www.w3.org/1999/xlink" xmlns:svgjs="http://svgjs.com/svgjs" version="1.1" width="512" height="512" x="0" y="0" viewBox="0 0 32 32" style="enable-background:new 0 0 512 512" xml:space="preserve" class=""><g><defs><style>.b`{fill:rgb(0,0,0);}</style></defs><g id="ab"><g><path class="b`" d="M25,24c-.553,0-1,.447-1,1v2c0,.552-.448,1-1,1H9c-.552,0-1-.448-1-1V5c0-.552,.448-1,1-1h14c.552,0,1,.448,1,1v2c.021,1.318,1.98,1.311,2,0v-2c0-1.654-1.346-3-3-3H9c-1.654,0-3,1.346-3,3V27c0,1.654,1.346,3,3,3h14c1.654,0,3-1.346,3-3v-2c0-.553-.447-1-1-1Z" fill="#c0724a" data-original="#000000"/><path class="b`" d="M29.5,16.025c0-.289-.126-.544-.321-.726l-4.969-5.004c-.928-.922-2.337,.476-1.42,1.41l3.298,3.32h-9.588c-.553,0-1,.447-1,1s.447,1,1,1h9.579l-3.287,3.294c-.39,.391-.39,1.023,.002,1.414,.391,.39,1.024,.39,1.414-.002l4.968-4.978c.197-.183,.324-.438,.324-.728Z" fill="#c0724a" data-original="#000000"/></g></g></g></svg>
