<svg width="89" height="67" viewBox="0 0 89 67" fill="none" xmlns="http://www.w3.org/2000/svg">
<path d="M70.9569 57.198C71.0649 58.3444 70.9318 59.5006 70.5663 60.5925C70.2008 61.6844 69.6109 62.6877 68.8346 63.538C68.0582 64.3884 67.1126 65.0669 66.0584 65.53C65.0043 65.9932 63.8649 66.2307 62.7135 66.2273L49.5324 66.1885C48.8025 66.1864 48.1035 65.8944 47.5889 65.3768C47.0744 64.8592 46.7865 64.1585 46.7887 63.4286L46.7948 61.3263C46.8061 57.4958 49.5492 54.8291 51.6177 53.2556C51.8667 53.0798 52.0817 52.8604 52.2526 52.608C52.2803 52.5651 52.3026 52.519 52.319 52.4706L52.3246 52.4376L52.3246 52.4211L52.3083 52.366C52.2864 52.3109 52.2317 52.2117 52.111 52.0738C51.6912 51.6234 51.1875 51.2592 50.6282 51.0017C49.084 50.2267 46.7741 49.6695 44.0773 49.6616C41.3695 49.6536 39.0564 50.1972 37.5242 50.9632C36.9614 51.2168 36.4536 51.578 36.0295 52.0265C35.9484 52.1146 35.8813 52.2147 35.8305 52.3231L35.8139 52.3781L35.8137 52.4221C35.8298 52.4706 35.8519 52.5169 35.8794 52.5599C36.0487 52.8133 36.2625 53.0339 36.5104 53.2112C38.5696 54.7968 41.297 57.4796 41.2857 61.3101L41.2796 63.4124C41.2774 64.1413 40.9862 64.8396 40.4698 65.354C39.9534 65.8683 39.2541 66.1569 38.5252 66.1562L25.3441 66.1174C24.1927 66.1141 23.0547 65.8699 22.0033 65.4005C20.9518 64.9312 20.0102 64.2471 19.2389 63.3923C18.4676 62.5374 17.8836 61.5306 17.5245 60.4366C17.1654 59.3426 17.0392 58.1856 17.1538 57.0399L18.5374 41.3311L17.233 41.3272C16.1598 41.3241 14.9192 42.1295 13.5104 43.958C12.3502 45.4626 10.5961 46.8113 8.31206 46.8046C5.18602 46.7954 3.10739 44.3292 1.97486 42.0419C0.754757 39.5892 0.0871965 36.3951 0.0971125 33.0214C0.107029 29.6477 0.793353 26.4576 2.02785 24.0121C3.17381 21.7315 5.2669 19.2775 8.39294 19.2867C10.6769 19.2934 12.4231 20.6524 13.5744 22.1638C14.9724 24.0006 16.2084 24.8133 17.2816 24.8165L18.5859 24.8203L17.2947 9.1036C17.1868 7.95725 17.3199 6.801 17.6854 5.70913C18.0509 4.61726 18.6407 3.61393 19.4171 2.76359C20.1934 1.91325 21.139 1.23471 22.1932 0.771577C23.2474 0.30844 24.3868 0.0709482 25.5382 0.0743515L38.7193 0.113094C39.4491 0.115239 40.1482 0.407215 40.6627 0.924794C41.1773 1.44237 41.4652 2.14315 41.463 2.87297L41.4568 4.97535C41.4456 8.80585 38.7024 11.4726 36.6339 13.046C36.385 13.2218 36.1699 13.4412 35.9991 13.6936C35.9714 13.7365 35.9491 13.7826 35.9327 13.831L35.9271 13.864L35.927 13.8805L35.9434 13.9356C35.9941 14.0423 36.0606 14.1409 36.1406 14.2278C36.5604 14.6784 37.0641 15.0425 37.6235 15.2999C39.1677 16.075 41.4776 16.6321 44.1744 16.64C46.8766 16.648 49.1953 16.1044 50.7275 15.3384C51.2904 15.085 51.7981 14.7237 52.2221 14.2751C52.3032 14.1869 52.3703 14.0869 52.4211 13.9785L52.4378 13.9235L52.4378 13.9125L52.4324 13.8795C52.4163 13.831 52.3942 13.7847 52.3668 13.7417C52.2792 13.5928 52.0927 13.3666 51.7358 13.0904C49.6766 11.5048 46.9492 8.82202 46.9604 4.99152L46.9666 2.88915C46.9687 2.15933 47.2607 1.46025 47.7783 0.945708C48.2959 0.431163 48.9967 0.143301 49.7265 0.145446L62.9076 0.184188C64.059 0.187553 65.197 0.431739 66.2484 0.901065C67.2998 1.37039 68.2415 2.05448 69.0128 2.90936C69.7841 3.76425 70.3681 4.77103 70.7272 5.86503C71.0862 6.95903 71.2125 8.11605 71.0978 9.26174L69.7088 24.9705L71.0186 24.9744C72.0918 24.9776 73.3325 24.1722 74.7413 22.3436C75.9015 20.839 77.6556 19.4903 79.9396 19.497C83.0656 19.5062 85.1443 21.9724 86.2768 24.2597C87.4969 26.7124 88.1645 29.9065 88.1546 33.2802C88.1446 36.6539 87.4583 39.844 86.2238 42.2895C85.0779 44.5701 82.9848 47.0241 79.8587 47.0149C77.5747 47.0082 75.8286 45.6492 74.6773 44.1378C73.2792 42.301 72.0433 41.4883 70.9701 41.4852L69.6602 41.4813L70.9569 57.198Z" fill="#661F1E"/>
</svg>
