<?xml version="1.0"?>
<svg xmlns="http://www.w3.org/2000/svg" xmlns:xlink="http://www.w3.org/1999/xlink" xmlns:svgjs="http://svgjs.com/svgjs" version="1.1" width="512" height="512" x="0" y="0" viewBox="0 0 512 512" style="enable-background:new 0 0 512 512" xml:space="preserve" class=""><g><g><path d="M476,40H100A28.031,28.031,0,0,0,72,68v76H36A28.031,28.031,0,0,0,8,172V388a28.031,28.031,0,0,0,28,28H56v56a8,8,0,0,0,13.66,5.66L131.31,416H364a28.031,28.031,0,0,0,28-28V371.31l50.34,50.35A8,8,0,0,0,456,416V360h20a28.031,28.031,0,0,0,28-28V68A28.031,28.031,0,0,0,476,40ZM376,388a12.01,12.01,0,0,1-12,12H128a8.008,8.008,0,0,0-5.66,2.34L72,452.69V408a8,8,0,0,0-8-8H36a12.01,12.01,0,0,1-12-12V172a12.01,12.01,0,0,1,12-12H72V332a28.031,28.031,0,0,0,28,28H376Zm112-56a12.01,12.01,0,0,1-12,12H448a8,8,0,0,0-8,8v44.69l-50.34-50.35A8.008,8.008,0,0,0,384,344H100a12.01,12.01,0,0,1-12-12V68a12.01,12.01,0,0,1,12-12H476a12.01,12.01,0,0,1,12,12Z" fill="#c0724a" data-original="#000000" class=""/><path d="M431.76,246.06l-24-96A8,8,0,0,0,400,144H384a8,8,0,0,0-7.76,6.06l-24,96a8,8,0,0,0,15.52,3.88L376.25,216h31.5l8.49,33.94a8,8,0,0,0,7.75,6.06,8.132,8.132,0,0,0,1.95-.24A7.994,7.994,0,0,0,431.76,246.06ZM380.25,200l10-40h3.5l10,40Z" fill="#c0724a" data-original="#000000" class=""/><path d="M342.4,243.2l-20.6-27.47,12.86-19.29a8,8,0,0,0-13.32-8.88l-8.66,12.99c-3.58-5.66-8.46-12.15-14.38-17.05a23.991,23.991,0,1,0-38.24-2.15A39.984,39.984,0,0,0,280,256c14.66,0,26.35-14.36,33.09-25.21L329.6,252.8a8,8,0,1,0,12.8-9.6ZM280,160a8,8,0,1,1-8,8A8.011,8.011,0,0,1,280,160Zm0,80a24,24,0,0,1,0-48c7.67,0,17.62,13.32,23.12,24C297.62,226.68,287.67,240,280,240Z" fill="#c0724a" data-original="#000000" class=""/><path d="M236.78,250.46l-8.39-8.74A27.744,27.744,0,0,0,232,228V172a28.031,28.031,0,0,0-28-28H180a28.031,28.031,0,0,0-28,28v56a28.031,28.031,0,0,0,28,28h24a27.826,27.826,0,0,0,12.89-3.16l8.33,8.7a8.006,8.006,0,1,0,11.56-11.08ZM216,228c0,.25-.02.5-.04.75l-2.18-2.29a8.006,8.006,0,0,0-11.56,11.08l2.34,2.43c-.19.01-.37.03-.56.03H180a12.01,12.01,0,0,1-12-12V172a12.01,12.01,0,0,1,12-12h24a12.01,12.01,0,0,1,12,12Z" fill="#c0724a" data-original="#000000" class=""/></g></g></svg>
