<svg width="42" height="40" viewBox="0 0 42 40" fill="none" xmlns="http://www.w3.org/2000/svg">
<path d="M12.2299 29.0397C8.61251 23.7535 0.473633 20.9342 0.473633 20.9342C0.473633 20.9342 5.44703 23.7535 8.16032 29.0397C10.8736 34.326 10.8736 39.6122 10.8736 39.6122C10.8736 39.6122 15.8472 34.326 12.2299 29.0397Z" fill="#661F1E"/>
<path d="M12.2299 12.0181C8.61251 17.833 0.473633 20.9342 0.473633 20.9342C0.473633 20.9342 5.44703 17.833 8.16032 12.0181C10.8736 6.20327 10.8736 0.388428 10.8736 0.388428C10.8736 0.388428 15.8472 6.20327 12.2299 12.0181Z" fill="#661F1E"/>
<path d="M17.2838 11.5943C17.2838 11.5943 9.81264 20.9332 4.20924 20.9332C9.81264 20.9332 17.2838 30.2722 17.2838 30.2722C24.755 20.9332 41.5652 20.9332 41.5652 20.9332C41.5652 20.9332 24.755 20.9332 17.2838 11.5943Z" fill="#661F1E"/>
</svg>
