<svg width="25" height="25" viewBox="0 0 25 25" fill="none" xmlns="http://www.w3.org/2000/svg">
<path d="M12.5277 0C5.46976 0 0 5.15827 0 12.1255C0 15.7697 1.49748 18.9189 3.93498 21.0943C4.35585 21.4728 4.26915 21.692 4.34073 24.0292C4.34636 24.1929 4.39197 24.3528 4.47356 24.4948C4.55516 24.6369 4.67027 24.7568 4.80885 24.8441C4.94744 24.9315 5.10529 24.9836 5.26863 24.9959C5.43197 25.0082 5.59585 24.9804 5.74597 24.9148C8.4128 23.7404 8.44708 23.6477 8.89919 23.7707C16.6255 25.8972 25 20.9526 25 12.1255C25 5.15827 19.5862 0 12.5277 0ZM20.0499 9.33115L16.3705 15.1563C16.2315 15.3753 16.0488 15.5633 15.8338 15.7084C15.6189 15.8536 15.3762 15.9527 15.1211 15.9997C14.866 16.0467 14.604 16.0405 14.3514 15.9815C14.0988 15.9225 13.8611 15.8119 13.6532 15.6568L10.7258 13.4657C10.5949 13.3676 10.4358 13.3145 10.2722 13.3145C10.1086 13.3145 9.94942 13.3676 9.81855 13.4657L5.86845 16.4617C5.34123 16.8614 4.65071 16.2298 5.00605 15.6719L8.68548 9.84677C8.82438 9.62767 9.00704 9.43964 9.22202 9.29445C9.43701 9.14927 9.67967 9.05007 9.93479 9.00307C10.1899 8.95608 10.452 8.96231 10.7046 9.02137C10.9572 9.08042 11.1949 9.19104 11.4027 9.34627L14.3291 11.5368C14.46 11.6349 14.6192 11.688 14.7828 11.688C14.9463 11.688 15.1055 11.6349 15.2364 11.5368L19.1885 8.54385C19.7147 8.14163 20.4052 8.77268 20.0499 9.33115Z" fill="#F9BF29"/>
</svg>
