<?xml version="1.0"?>
<svg xmlns="http://www.w3.org/2000/svg" xmlns:xlink="http://www.w3.org/1999/xlink" xmlns:svgjs="http://svgjs.com/svgjs" version="1.1" width="512" height="512" x="0" y="0" viewBox="0 0 499.5 373.2" style="enable-background:new 0 0 512 512" xml:space="preserve" class=""><g><g id="Layer_16"><g><path d="m495.5 83.1c-3.6-5.5-9.2-9.3-15.6-10.6l-347.2-72c-6.4-1.3-13.1-.1-18.5 3.6-5.5 3.5-9.3 9.1-10.6 15.5l-6.4 30.8-6.3 30.6h-66.3c-13.6 0-24.6 11-24.6 24.6v243c0 13.6 11 24.6 24.6 24.6h354.6c11.1 0 20.9-7.5 23.7-18.3l17.7 3.7c1.6.3 3.3.5 5 .5 11.7 0 21.7-8.2 24.1-19.6l30.7-148 12.4-60 6.2-30c1.3-6.4.1-13-3.5-18.4zm-389-18.5 80.1 16.4h-83.5zm272.7 296.6h-354.6c-7 0-12.6-5.6-12.6-12.6v-243c-.1-6.9 5.5-12.5 12.4-12.6h.2 354.6c7 0 12.6 5.6 12.6 12.6v243c.1 6.9-5.5 12.5-12.4 12.6-.1 0-.1 0-.2 0zm24.6-235.7 74.8 15.4-7.6 36.6-67.2-12.9zm34.1 211.6c-1.3 6.7-7.8 11.1-14.6 9.8-.1 0-.2 0-.3-.1l-19.2-3.9v-166.1l64.8 12.4zm-34.1-223.8v-7.7c0-13.6-11-24.6-24.6-24.6h-132.9l-137.3-28.2 6.4-30.8c.6-3.3 2.6-6.1 5.4-7.9 2-1.4 4.4-2.1 6.9-2.1.8 0 1.7.1 2.5.3l347.3 71.9c6.8 1.4 11.1 8.1 9.7 14.9l-6.2 30z" fill="#c0724a" data-original="#000000"/><path d="m63.1 177.9h28.9c7.1-.1 12.8-5.8 12.7-12.9v-.1-21.6c.1-7.1-5.6-13-12.7-13.1h-28.9c-7.1.1-12.8 6-12.7 13.1v21.6c-.1 7.1 5.5 12.9 12.7 13zm-.7-34.6c0-.7.4-1.1.7-1.1h28.9c.3 0 .7.4.7 1.1v21.6c0 .6-.4 1-.7 1h-28.9c-.3 0-.7-.4-.7-1z" fill="#c0724a" data-original="#000000"/><path d="m34.4 287.3h17.9v12h-17.9z" fill="#c0724a" data-original="#000000"/><path d="m63.5 287.3h17.9v12h-17.9z" fill="#c0724a" data-original="#000000"/><path d="m93 287.3h17.9v12h-17.9z" fill="#c0724a" data-original="#000000"/><path d="m122.1 287.3h17.9v12h-17.9z" fill="#c0724a" data-original="#000000"/><path d="m151.7 287.3h17.9v12h-17.9z" fill="#c0724a" data-original="#000000"/><path d="m313.7 115.3h12v17.9h-12z" fill="#c0724a" data-original="#000000"/><path d="m338.3 115.3h12v17.9h-12z" fill="#c0724a" data-original="#000000"/><path d="m260.4 115.3h12v17.9h-12z" fill="#c0724a" data-original="#000000"/><path d="m285 115.3h12v17.9h-12z" fill="#c0724a" data-original="#000000"/><path d="m34.4 326.6h135.2v12h-135.2z" fill="#c0724a" data-original="#000000"/></g></g></g></svg>
