<svg width="60" height="60" viewBox="0 0 60 60" fill="none" xmlns="http://www.w3.org/2000/svg">
<path d="M20.3438 4.39052C19.4063 5.32802 19.1719 5.93739 19.3125 7.57802C19.4063 9.21864 19.6406 9.59364 20.4844 9.68739C21.375 9.82802 21.5625 9.54677 21.8438 7.95302L22.1719 6.03114H30H37.8281L38.1563 7.95302C38.4375 9.54677 38.625 9.82802 39.5156 9.68739C40.3594 9.59364 40.5938 9.21864 40.6875 7.57802C40.8281 5.93739 40.5938 5.32802 39.6563 4.39052C38.4844 3.21864 38.4375 3.21864 30 3.21864C21.5625 3.21864 21.5156 3.21864 20.3438 4.39052Z" fill="white"/>
<path d="M2.53125 13.0625C0.421875 13.9062 0 15.2656 0 21.0312C0 26.6562 0.375 27.9218 2.29688 29C2.76562 29.2343 7.45312 30.4062 12.7031 31.5312C17.9531 32.7031 22.7344 33.7812 23.3438 33.9218C24.2344 34.1562 24.375 34.4843 24.375 36.2187C24.375 39.8281 24.3281 39.7812 30 39.7812C35.6719 39.7812 35.625 39.8281 35.625 36.2187C35.625 34.4843 35.7656 34.1562 36.7031 33.9218C37.2656 33.7812 42.0469 32.7031 47.2969 31.5312C52.5469 30.4062 57.2344 29.2343 57.7031 29C59.625 27.9218 60 26.7031 60 20.9375C60 15.8281 59.9062 15.3593 58.875 14.1406L57.75 12.8281L30.6094 12.7343C15.7031 12.6875 3.04688 12.8281 2.53125 13.0625ZM57.0938 20.9375C57.2344 26.0468 57.1875 26.1875 56.1562 26.6562C55.0312 27.125 36 31.4375 35.8594 31.2031C35.8125 31.1562 35.4844 30.6406 35.2031 30.0312C34.6875 29.0468 34.3594 29 30 29C25.6406 29 25.3125 29.0468 24.7969 30.0781C24.5156 30.6406 24.1875 31.1562 24.1406 31.2031C24 31.4375 4.96875 27.125 3.89062 26.6562C2.85938 26.2343 2.8125 25.9531 2.8125 21.125C2.8125 18.3125 2.95312 15.875 3.14062 15.7343C3.28125 15.5468 15.4688 15.4531 30.1875 15.5L56.9531 15.6406L57.0938 20.9375ZM32.8125 34.3906V36.9687H30H27.1875V34.3906V31.8125H30H32.8125V34.3906Z" fill="white"/>
<path d="M1.73438 32.1406C1.54688 32.2812 1.40625 36.9219 1.40625 42.3594V52.2969L2.625 53.5625L3.89062 54.7812H30H56.1094L57.375 53.5156L58.5938 52.2969L58.5 42.1719C58.3594 32.0937 58.3594 32.0469 57.3281 31.9062C56.7188 31.8125 56.2031 31.8125 56.1562 31.9062C56.1094 32 55.9688 36.4531 55.8281 41.8906L55.5469 51.7344H30H4.45312L4.17188 41.8906C4.03125 36.4531 3.89062 32 3.84375 31.9062C3.65625 31.6719 2.01562 31.8125 1.73438 32.1406Z" fill="white"/>
</svg>
