<svg width="60" height="60" viewBox="0 0 60 60" fill="none" xmlns="http://www.w3.org/2000/svg">
<path d="M28.1408 0.0691778C20.5722 0.608443 13.7076 3.76197 8.53283 9.09601C6.27985 11.4289 4.64879 13.7032 3.22894 16.5168C2.79477 17.3843 2.34887 18.158 2.24326 18.2401C2.14939 18.3221 2.09072 18.4628 2.12592 18.5566C2.17286 18.6621 2.06725 19.0959 1.90297 19.5296C-0.678567 26.3291 -0.631629 34.0664 2.03205 40.8775C6.19771 51.5221 15.9489 58.8139 27.4367 59.8808C35.0992 60.5959 43.2193 58.0637 49.1451 53.1165C50.6236 51.8856 52.8883 49.5292 53.9444 48.1341C57.0423 44.0076 58.9549 39.4004 59.7763 34.1015C60.0932 32.0617 60.0697 27.6655 59.7294 25.5553C58.5912 18.5332 55.3995 12.5778 50.2364 7.82991C44.3223 2.40209 36.0614 -0.493534 28.1408 0.0691778ZM32.1891 2.09728C33.738 2.23796 35.2165 2.47243 36.6481 2.8124C37.7863 3.09375 40.4617 3.98471 40.4617 4.0785C40.4617 4.12539 40.0628 4.34813 39.5817 4.59432L38.7016 5.02808H36.6716C34.7706 5.02808 34.6181 5.0398 34.3717 5.27426C34.0431 5.59079 32.0131 9.647 32.0131 10.0104C32.0131 10.5731 32.412 10.8428 34.1018 11.4055C34.9818 11.6986 35.8737 11.9447 36.0614 11.9447C36.2609 11.9447 37.2231 11.7337 38.2088 11.4875L40.0158 11.0303L41.377 11.4875C42.5504 11.8861 47.5023 12.9998 48.1008 12.9998C48.2064 12.9998 48.8635 12.6247 49.5441 12.1792C50.2364 11.722 50.8114 11.3586 50.8466 11.3586C51.0226 11.3586 53.17 14.1839 53.7567 15.1921C53.8153 15.2858 53.0526 15.5789 51.3511 16.1534L48.8517 16.974L46.235 16.5285C44.8034 16.2823 43.6065 16.0596 43.5831 16.0361C43.5596 16.0127 43.1254 15.3445 42.5974 14.5707C42.0811 13.7853 41.5648 13.1171 41.4592 13.0702C41.3536 13.035 39.7812 12.9998 37.9624 12.9998H34.665L32.8697 14.7935C31.2269 16.4347 31.0743 16.6223 31.0743 16.9974C31.0743 17.7477 32.0131 24.0665 32.1774 24.4299C32.3182 24.7582 32.6937 24.9457 36.1318 26.4111L39.9337 28.0406L41.9051 27.5483L43.8764 27.0676L44.956 27.7945L46.0355 28.533L46.0942 30.526L46.1529 32.5189L48.1242 36.411L50.0838 40.3148V42.3781V44.4531L51.2455 45.6371L52.419 46.8212L51.8088 47.5832C50.87 48.7789 48.9574 50.6898 47.6783 51.7214C43.5361 55.0625 38.9011 57.032 33.3625 57.8058C31.7432 58.0285 28.0234 57.9933 26.2164 57.7354C13.7546 55.9652 3.99167 46.235 2.27847 33.8436C1.89124 31.0418 1.92644 27.9234 2.39581 25.3091C2.57182 24.3361 3.12333 22.0032 3.20547 21.9329C3.22894 21.9094 3.44016 22.4839 3.67484 23.199C3.90953 23.9024 4.19115 24.5823 4.29676 24.6761C4.39063 24.7816 5.58753 25.6022 6.93697 26.5049L9.38943 28.1344L8.74404 28.8144C7.95785 29.635 7.92265 29.8108 7.98132 31.8389L8.02825 33.3395L9.10781 35.4731C9.76492 36.7744 10.293 37.6771 10.4572 37.7943C10.6098 37.8881 11.7011 38.1695 12.8628 38.4039L14.9984 38.826V43.4918V48.1693L16.0662 50.8305C16.6412 52.3076 17.2279 53.5971 17.357 53.7026C17.6269 53.9371 20.6895 54.9687 21.112 54.9687C21.288 54.9687 21.5344 54.8398 21.6987 54.6639C21.9686 54.3709 21.9803 54.3123 22.039 51.909L22.0976 49.4471L23.9164 48.0755C24.9139 47.3252 25.7939 46.575 25.8761 46.4108C25.9699 46.2233 26.0286 45.6137 26.0286 44.7696V43.4214L27.9061 41.5457C28.927 40.5258 29.8305 39.5528 29.9009 39.3887C30.0769 38.9315 30.957 34.4767 30.957 33.9843C30.957 33.1988 30.7458 33.1168 28.5163 33.0464L26.5684 32.9878L25.1955 30.7135C24.4445 29.4591 23.7052 28.3337 23.5644 28.2165C23.3297 28.0289 23.0129 28.0055 19.9737 28.0055H16.6412L15.7611 26.2704C15.28 25.3209 14.8107 24.4534 14.7168 24.3361C14.6229 24.2189 14.3413 24.0899 14.0831 24.0548C13.649 23.9962 13.5786 24.0313 12.7806 24.7816L11.9475 25.5671V24.5589V23.5389L10.9501 22.5073L9.94094 21.4639L9.97614 20.6668L10.0113 19.8696L13.0036 19.4358C14.6581 19.2014 16.1249 18.9669 16.2774 18.92C16.43 18.8731 17.709 18.1463 19.1289 17.2905L21.7104 15.743L23.2007 13.2812L24.6909 10.831L26.0286 10.3621C27.6245 9.81113 27.7066 9.76423 27.9296 9.30703C28.3285 8.52158 28.9739 6.31762 28.9387 5.89559C28.88 5.18048 28.6453 5.08669 25.3832 4.54743C22.8486 4.13712 22.3793 4.01988 21.9334 3.73853C21.6635 3.56268 21.4757 3.38683 21.5227 3.35166C21.5813 3.31649 22.1328 3.15237 22.743 2.98825C25.8995 2.13245 29.056 1.83938 32.1891 2.09728ZM20.2788 5.02808C20.8303 5.39149 21.3818 5.75491 21.5227 5.82525C21.6635 5.89559 22.743 6.11833 23.9282 6.31762C25.1133 6.51692 26.2281 6.70449 26.4041 6.73966L26.7092 6.79827L26.4745 7.48994L26.2516 8.18161L24.9843 8.60364C24.2919 8.82638 23.6114 9.09601 23.4705 9.1898C23.3415 9.29531 22.5553 10.4793 21.7456 11.8275L20.2671 14.2894L17.9789 15.661L15.679 17.0326L12.147 17.5367C7.65276 18.1815 8.01652 17.9236 8.01652 20.5027V22.3784L8.99046 23.3397L9.95267 24.3127V25.1802C9.95267 25.6491 9.90574 26.0125 9.84706 25.9891C9.78839 25.9656 8.87312 25.3678 7.79357 24.6644L5.85742 23.3748L5.09469 21.1005L4.33196 18.838L4.68399 18.0525C6.70228 13.5977 10.7389 9.06084 15.1862 6.25901C16.5239 5.41494 18.9881 4.19573 19.1523 4.28952C19.2227 4.33641 19.7273 4.66466 20.2788 5.02808ZM44.1463 5.8487C44.7917 6.24728 45.7891 6.89206 46.3523 7.29065C47.4788 8.09954 49.3798 9.69389 49.3798 9.83457C49.3798 9.88146 49.0278 10.1511 48.6053 10.4325L47.8309 10.9365L45.8126 10.5497C44.7096 10.3269 42.9729 9.89319 41.952 9.56494L40.098 8.96706L38.0797 9.45943L36.0614 9.96353L35.2987 9.70562C34.8762 9.56494 34.5242 9.43598 34.5007 9.42426C34.4773 9.40082 34.7354 8.86155 35.0523 8.20505L35.6507 7.02101H37.3991H39.1475L41.0015 6.09488C42.0341 5.57906 42.8907 5.15703 42.9142 5.15703C42.9377 5.14531 43.4892 5.46183 44.1463 5.8487ZM41.3184 16.212C41.7525 16.8802 42.2336 17.5367 42.3862 17.6774C42.6209 17.9001 43.1724 18.0291 45.883 18.4745L49.1099 19.0138L51.9731 18.0525C53.5455 17.5367 54.8597 17.1498 54.9184 17.1967C55.0709 17.3491 56.0566 19.6586 56.479 20.8661C57.3356 23.3279 57.7581 25.4381 57.9693 28.322C58.3565 33.574 56.9836 39.3887 54.2612 43.9959L53.5807 45.1447L52.8297 44.4062L52.0787 43.6676V41.7567V39.8576L50.0838 35.86L48.089 31.8741V29.9515C48.089 28.8964 48.0303 27.8765 47.9599 27.6889C47.8426 27.3373 46.7044 26.4932 44.8386 25.356C44.1346 24.934 44.2519 24.9223 41.729 25.5436L40.1215 25.9422L37.0236 24.6175L33.9258 23.2928L33.5033 20.3502L33.0809 17.396L34.2778 16.1885L35.4747 14.9928H37.9976H40.5204L41.3184 16.212ZM14.4704 28.1344C14.8576 28.9199 15.3035 29.6584 15.456 29.7757C15.7142 29.9867 15.9723 29.9984 19.0937 29.9984H22.4497L23.8812 32.3899C25.1133 34.418 25.3832 34.8049 25.6883 34.9104C25.8995 34.9808 26.6623 35.0394 27.3898 35.0394C28.3872 35.0394 28.7275 35.0745 28.7275 35.18C28.7275 35.2621 28.5867 36.0476 28.4224 36.9151L28.1056 38.4977L26.0755 40.561L24.0338 42.6125V44.0428V45.473L22.1563 46.8798C21.1354 47.6535 20.2319 48.3921 20.1615 48.5093C20.0911 48.6382 20.0441 49.5644 20.0441 50.6898C20.0441 52.3193 20.0207 52.6358 19.8799 52.5889C19.786 52.5538 19.5044 52.46 19.2462 52.3897L18.7886 52.249L17.885 49.9981L16.9932 47.759V42.6829V37.6067L16.7233 37.3371C16.5121 37.1261 16.031 36.9854 14.1418 36.6103C12.8628 36.3641 11.7715 36.1296 11.7245 36.0945C11.6659 36.0593 11.2434 35.2856 10.7858 34.3712L9.95267 32.6947V31.5576V30.4204L11.795 28.5682C12.8041 27.5483 13.6724 26.7159 13.7076 26.7159C13.7428 26.7159 14.0949 27.349 14.4704 28.1344Z" fill="white"/>
</svg>
