<svg width="512" height="441" viewBox="0 0 512 441" fill="none" xmlns="http://www.w3.org/2000/svg">
<g clip-path="url(#clip0_1799_8660)">
<path d="M73.263 352.207H6.92001C3.09801 352.207 0.00100755 355.304 0.00100755 359.126V505.08C0.00100755 508.902 3.09801 511.999 6.92001 511.999H73.262C77.084 511.999 80.181 508.902 80.181 505.08V359.125C80.181 355.303 77.085 352.207 73.263 352.207V352.207ZM66.344 498.161H13.839V366.044H66.343V498.161H66.344ZM217.201 262.642H150.859C147.037 262.642 143.94 265.739 143.94 269.561V505.081C143.94 508.903 147.037 512 150.859 512H217.201C221.023 512 224.12 508.903 224.12 505.081V269.56C224.12 265.738 221.023 262.642 217.201 262.642V262.642ZM210.282 498.161H157.778V276.479H210.282V498.161ZM361.14 201.826H294.798C290.976 201.826 287.879 204.923 287.879 208.745V505.08C287.879 508.902 290.976 511.999 294.798 511.999H361.14C364.962 511.999 368.059 508.902 368.059 505.08V208.745C368.059 204.923 364.962 201.826 361.14 201.826V201.826ZM354.221 498.161H301.717V215.664H354.221V498.161ZM505.081 126.637H438.739C434.917 126.637 431.82 129.734 431.82 133.556V505.08C431.82 508.902 434.917 511.999 438.739 511.999H505.081C508.903 511.999 512 508.902 512 505.08V133.556C512 129.734 508.903 126.637 505.081 126.637V126.637ZM498.162 498.161H445.658V140.475H498.162V498.161ZM0.387008 282.096C-0.869992 278.488 1.03801 274.544 4.64601 273.287C174.491 214.141 323.183 127.186 446.993 14.88L411.79 16.789C408.002 16.994 404.713 14.071 404.509 10.255C404.302 6.43998 407.225 3.18098 411.043 2.97298L465.619 0.010983C467.687 -0.104017 469.702 0.719983 471.101 2.25198C472.5 3.78398 473.139 5.86198 472.84 7.91598L464.966 62.001C464.464 65.442 461.507 67.922 458.128 67.922C457.795 67.922 457.461 67.899 457.121 67.85C453.342 67.298 450.722 63.787 451.272 60.005L456.36 25.064C331.153 138.657 180.84 226.581 9.19501 286.355C8.44301 286.616 7.67501 286.742 6.92001 286.742C4.05801 286.743 1.38201 284.952 0.387008 282.096V282.096Z" fill="white"/>
</g>
<defs>
<clipPath id="clip0_1799_8660">
<rect width="512" height="512" fill="white"/>
</clipPath>
</defs>
</svg>
