<svg width="512" height="512" viewBox="0 0 512 512" fill="none" xmlns="http://www.w3.org/2000/svg">
<path d="M478.354 336.316C467.813 328.937 455.39 326.226 444.397 323.817C440.331 322.913 436.265 325.549 435.437 329.614C434.533 333.68 437.093 337.671 441.159 338.574C451.249 340.758 461.639 343.017 469.696 348.664C475.945 352.955 481.893 361.313 480.086 369.369C477.526 380.965 461.037 386.085 451.324 388.118C417.442 395.271 381.677 394.97 347.041 394.669C327.013 394.518 306.307 394.367 285.978 395.572C270.919 396.476 255.183 398.508 242.157 406.942C228.679 415.676 217.912 434.273 224.312 451.741C225.592 455.054 227.248 457.991 228.905 460.777C231.013 464.391 232.896 467.478 232.971 470.339C233.121 474.104 229.808 477.869 226.571 479.826C222.053 482.537 216.255 483.666 210.232 484.645C157.074 493.304 98.9475 493.53 32.9144 485.398C35.6249 471.694 40.3684 456.861 47.4461 440.372C48.1989 440.372 48.9521 440.447 49.7802 440.447C63.6346 440.447 79.1451 438.716 95.8602 435.327C139.982 426.518 184.105 406.716 223.484 378.104C237.789 367.789 251.794 356.946 265.121 345.802C267.531 343.845 268.434 340.532 267.455 337.596C266.477 334.659 263.766 332.626 260.604 332.551C252.322 332.174 241.856 331.045 230.562 327.883C251.87 326.602 279.427 322.311 304.5 310.49C305.253 310.113 305.931 309.661 306.533 309.134C329.648 287.073 351.258 263.581 370.684 239.412C372.491 237.153 372.867 234.066 371.587 231.506C370.383 228.871 367.823 227.214 364.886 227.139C355.7 226.988 340.642 225.709 324.152 219.986C345.686 217.802 375.051 213.586 394.929 205.454C396.284 204.852 397.413 203.949 398.242 202.744C423.691 166.452 444.698 128.805 460.736 90.8565C461.639 88.7485 461.489 86.339 460.434 84.3813C459.305 82.3482 457.423 80.9176 455.164 80.5412C448.915 79.4121 442.74 78.6589 436.792 78.2825C446.656 75.2706 455.691 73.9906 462.995 73.5389C465.931 73.3133 468.491 71.4309 469.545 68.6447C479.936 40.5601 483.324 23.6943 483.399 22.9415C484.152 19.4025 482.195 15.8639 478.882 14.5835C476.698 13.68 425.197 -6.42341 345.536 16.3156C344.105 16.692 342.825 17.52 341.922 18.6497C331.456 30.9226 323.023 45.8308 316.698 59.0826C317.301 51.9296 318.505 44.6259 320.161 37.3225C320.839 34.612 319.86 31.7509 317.677 29.8685C315.569 28.0615 312.557 27.6098 309.921 28.6636C281.234 40.6356 252.547 57.0496 224.839 77.5298C223.936 78.1319 223.258 78.9604 222.731 79.8639C213.093 96.88 208.274 118.64 205.865 136.861C203.983 128.504 202.778 119.845 202.251 110.81C202.1 107.949 200.293 105.464 197.658 104.335C195.023 103.205 191.936 103.657 189.827 105.539C173.338 119.845 156.547 136.184 139.907 154.104C139.531 154.556 139.154 155.007 138.929 155.534C129.216 172.626 124.322 194.461 121.912 212.758C120.783 207.789 119.879 202.669 119.277 197.398C118.9 194.386 116.792 191.902 113.856 191.073C110.995 190.245 107.832 191.224 105.95 193.558C87.2767 216.522 68.6793 241.897 50.6838 269.003C32.8391 295.657 21.5451 324.72 17.931 352.88C11.9825 399.412 26.6649 424.786 33.7426 434.047C24.7073 455.054 18.9848 473.727 16.6507 490.97C16.0487 495.035 18.9099 498.875 23.051 499.402C23.3521 499.478 23.5782 499.478 23.8792 499.478C59.1168 504.146 92.171 506.48 123.493 506.48C154.816 506.48 184.406 504.146 212.642 499.478C219.87 498.348 227.55 496.843 234.326 492.701C243.06 487.431 248.331 478.621 248.03 469.812C247.804 463.111 244.642 457.84 241.931 453.097C240.501 450.762 239.22 448.579 238.467 446.471C234.853 436.758 241.705 425.163 250.364 419.591C260.905 412.739 274.759 411.308 286.882 410.631C306.759 409.426 327.164 409.577 346.891 409.727C382.279 410.029 418.948 410.33 454.486 402.876C477.602 397.982 491.531 387.516 494.769 372.608C498.081 357.699 488.896 343.619 478.354 336.316V336.316ZM32.8392 354.762C36.2275 328.937 46.6935 302.132 63.1829 277.36C77.6393 255.675 92.3966 235.196 107.23 216.071C110.166 228.871 114.609 240.993 120.482 252.287C122.063 255.374 125.602 257.031 128.99 256.127C132.378 255.224 134.712 252.137 134.637 248.673C134.637 248.146 133.959 195.44 151.578 163.741C163.926 150.414 176.425 137.991 188.698 126.772C191.258 144.466 196.453 161.031 204.359 176.165C205.94 179.252 209.479 180.909 212.867 180.005C216.256 179.177 218.59 176.09 218.59 172.626C218.59 172.099 217.988 120.447 235.079 88.6733C257.216 72.4095 279.954 58.932 302.844 48.3157C300.434 64.579 300.585 80.6921 303.22 96.2027C303.823 99.6664 306.684 102.226 310.223 102.452C313.385 102.678 316.848 100.495 317.903 97.1062C317.978 96.7298 330.326 56.5226 351.86 30.1697C409.988 14.132 452.077 22.4146 467.136 26.6311C465.479 33.1063 462.317 44.2497 457.046 58.8567C441.234 60.5134 419.625 65.7087 398.919 80.3159C396.133 82.3485 395.004 85.9629 396.284 89.2005C397.488 92.4381 400.877 94.4712 404.19 93.944C404.415 93.944 422.863 91.7602 442.966 93.944C428.133 127.224 409.46 160.278 387.173 192.278C354.948 204.551 295.992 206.961 295.39 206.961C292.077 207.111 289.216 209.37 288.387 212.532C287.559 215.694 288.839 219.083 291.625 220.814C312.256 234.066 333.715 239.262 349.677 241.219C333.413 260.57 315.719 279.468 296.971 297.388C251.418 318.32 195.625 312.598 195.022 312.523C191.559 312.222 188.322 314.255 187.117 317.567C185.988 320.805 187.267 324.495 190.204 326.377C207.747 337.671 225.969 343.092 241.404 345.652C232.669 352.579 223.709 359.356 214.675 365.906C177.028 393.238 134.938 412.212 92.8483 420.57C78.919 423.431 66.119 424.937 54.3731 425.238C153.385 220.062 317.3 158.923 318.957 158.32C322.872 156.89 324.905 152.598 323.474 148.683C322.119 144.768 317.752 142.734 313.837 144.165C312.105 144.768 143.07 207.487 41.1966 417.934C35.4743 407.393 28.6981 387.214 32.8392 354.762V354.762Z" fill="white"/>
</svg>
