<svg width="512" height="512" viewBox="0 0 512 512" fill="none" xmlns="http://www.w3.org/2000/svg">
<path d="M256 201C245.122 201 234.488 204.226 225.444 210.269C216.399 216.313 209.349 224.902 205.187 234.952C201.024 245.002 199.935 256.061 202.057 266.73C204.179 277.399 209.417 287.199 217.109 294.891C224.801 302.583 234.601 307.821 245.27 309.943C255.939 312.065 266.998 310.976 277.048 306.813C287.097 302.651 295.687 295.601 301.731 286.556C307.774 277.512 311 266.878 311 256C310.984 241.418 305.184 227.438 294.873 217.127C284.562 206.816 270.582 201.016 256 201V201ZM256 297C247.891 297 239.964 294.595 233.222 290.09C226.479 285.585 221.224 279.182 218.121 271.69C215.018 264.198 214.206 255.955 215.788 248.001C217.37 240.048 221.275 232.743 227.009 227.009C232.743 221.275 240.048 217.37 248.001 215.788C255.954 214.206 264.198 215.018 271.69 218.121C279.182 221.224 285.585 226.479 290.09 233.222C294.595 239.964 297 247.891 297 256C296.988 266.87 292.665 277.292 284.978 284.979C277.292 292.665 266.87 296.988 256 297V297Z" fill="white"/>
<path d="M280 249C278.143 249 276.363 249.737 275.05 251.05C273.738 252.363 273 254.143 273 256C272.99 258.977 272.202 261.899 270.715 264.478C269.229 267.057 267.095 269.203 264.524 270.704C263.73 271.167 263.035 271.782 262.478 272.514C261.921 273.245 261.514 274.08 261.28 274.969C261.046 275.858 260.989 276.784 261.113 277.695C261.237 278.606 261.539 279.484 262.002 280.278C262.465 281.072 263.08 281.767 263.812 282.324C264.543 282.881 265.378 283.288 266.267 283.522C267.156 283.756 268.082 283.813 268.993 283.689C269.904 283.565 270.782 283.263 271.576 282.8C276.258 280.063 280.144 276.15 282.849 271.45C285.555 266.749 286.985 261.423 287 256C287 254.143 286.262 252.363 284.95 251.05C283.637 249.737 281.857 249 280 249V249Z" fill="white"/>
<path d="M436.92 239.64C439.472 240.31 442.098 240.654 444.736 240.664C450.865 240.66 456.855 238.841 461.95 235.434C467.044 232.028 471.016 227.188 473.361 221.526C475.707 215.864 476.322 209.634 475.128 203.623C473.935 197.611 470.987 192.089 466.656 187.752C466.148 187.248 465.608 186.792 465.056 186.324C470.256 167.468 469.056 151.044 461.244 137.5C444.444 108.38 400.328 98.84 339.796 110.892C319.904 52.444 289.568 19 256 19C222.432 19 192.1 52.44 172.188 110.896C111.644 98.836 67.54 108.38 50.744 137.496C43.172 150.576 41.844 167.012 46.672 185.256C40.9732 189.718 37.0152 196.032 35.4838 203.106C33.9524 210.18 34.9443 217.566 38.2875 223.985C41.6308 230.404 47.1146 235.451 53.7884 238.251C60.4623 241.051 67.9055 241.428 74.828 239.316C78.98 244.84 83.528 250.428 88.428 256.024C47.752 302.44 33.956 345.412 50.74 374.5C62.8 395.408 88.904 406.252 125.072 406.252C140.905 406.058 156.682 404.327 172.18 401.084C192.088 459.548 222.428 493 256 493C271.168 493 286.128 485.888 299.572 472.504C306.187 475.402 313.606 475.899 320.548 473.908C327.49 471.917 333.518 467.564 337.591 461.601C341.665 455.638 343.527 448.439 342.857 441.249C342.187 434.058 339.026 427.328 333.92 422.22C333.416 421.712 332.876 421.252 332.344 420.788C334.964 414.592 337.472 407.988 339.84 401.084C355.331 404.329 371.102 406.06 386.928 406.252C423.092 406.252 449.2 395.404 461.26 374.5C478.06 345.412 464.248 302.44 423.58 256.028C428.3 250.64 432.756 245.16 436.92 239.64ZM456.752 221.696C453.562 224.878 449.24 226.664 444.734 226.664C440.228 226.664 435.906 224.878 432.716 221.696V221.696C430.341 219.319 428.724 216.291 428.069 212.996C427.415 209.7 427.752 206.284 429.039 203.18C430.325 200.076 432.503 197.423 435.297 195.556C438.091 193.69 441.376 192.694 444.736 192.694C448.096 192.694 451.381 193.69 454.175 195.556C456.969 197.423 459.147 200.076 460.433 203.18C461.72 206.284 462.057 209.7 461.402 212.996C460.748 216.291 459.131 219.319 456.756 221.696H456.752ZM449.132 144.496C454.608 154.004 455.664 165.824 452.368 179.696C445.795 178.024 438.854 178.556 432.612 181.21C426.37 183.863 421.171 188.492 417.814 194.386C414.457 200.279 413.126 207.112 414.027 213.834C414.928 220.557 418.01 226.798 422.8 231.6C423.304 232.108 423.844 232.564 424.376 233.032C421.128 237.261 417.699 241.459 414.088 245.624C396.93 227.808 378.242 211.531 358.24 196.98C355.627 172.391 350.89 148.075 344.08 124.304C396.832 114.104 435.844 121.46 449.132 144.492V144.496ZM330.356 384.728C310.881 379.976 291.791 373.771 273.244 366.164C285.184 360.392 297.076 354.12 308.744 347.384C320.504 340.584 331.884 333.416 342.744 325.996C340.088 345.855 335.948 365.488 330.356 384.728V384.728ZM181.644 384.728C176.048 365.488 171.903 345.856 169.244 325.996C180.132 333.416 191.508 340.592 203.264 347.384C214.92 354.12 226.8 360.4 238.76 366.164C220.212 373.771 201.12 379.976 181.644 384.728ZM181.644 127.272C201.119 132.023 220.21 138.229 238.756 145.836C226.812 151.608 214.924 157.88 203.256 164.636C191.496 171.436 180.116 178.604 169.236 186.024C171.896 166.157 176.044 146.518 181.644 127.272V127.272ZM152 296.136C136.121 283.909 121.195 270.491 107.352 256C121.197 241.51 136.122 228.093 152 215.864C151.012 229.064 150.488 242.516 150.488 256C150.488 269.484 151.004 282.92 152 296.136ZM210.268 335.256C195.116 326.508 180.616 317.116 167.04 307.348C165.368 290.584 164.488 273.348 164.488 256C164.488 238.652 165.368 221.42 167.04 204.652C180.604 194.892 195.108 185.496 210.268 176.744C225.268 168.076 240.644 160.196 256.004 153.232C271.376 160.2 286.748 168.08 301.748 176.744C316.9 185.492 331.4 194.884 344.976 204.652C346.648 221.416 347.528 238.652 347.528 256C347.528 273.348 346.648 290.58 344.976 307.348C331.412 317.108 316.908 326.504 301.748 335.256C286.748 343.924 271.372 351.804 256.012 358.768C240.632 351.8 225.26 343.92 210.26 335.256H210.268ZM330.364 127.256C335.96 146.496 340.105 166.128 342.764 185.988C331.876 178.568 320.5 171.392 308.764 164.6C297.08 157.88 285.2 151.6 273.24 145.836C291.788 138.229 310.88 132.024 330.356 127.272L330.364 127.256ZM360 215.864C375.879 228.091 390.805 241.509 404.648 256C390.803 270.49 375.878 283.907 360 296.136C360.988 282.936 361.512 269.484 361.512 256C361.512 242.516 360.996 229.08 360 215.864ZM256 33C282.552 33 308.452 63.116 326.06 113.9C302.058 119.867 278.616 127.897 255.996 137.9C233.379 127.896 209.94 119.866 185.94 113.9C203.552 63.112 229.448 33 256 33ZM53.716 221.696C50.9261 218.915 49.1872 215.252 48.7958 211.332C48.4043 207.412 49.3845 203.477 51.5692 200.199C53.754 196.921 57.008 194.502 60.7767 193.354C64.5454 192.207 68.5954 192.402 72.2364 193.906C75.8773 195.41 78.8839 198.131 80.7435 201.604C82.6031 205.077 83.2007 209.087 82.4343 212.952C81.668 216.816 79.5852 220.295 76.541 222.795C73.4967 225.296 69.6795 226.663 65.74 226.664C63.5061 226.673 61.2926 226.239 59.2279 225.386C57.1631 224.533 55.2883 223.279 53.712 221.696H53.716ZM87.656 187.752C84.0338 184.136 79.5727 181.473 74.6708 180.001C69.769 178.529 64.579 178.294 59.564 179.316C56.332 165.612 57.412 153.916 62.864 144.516C76.156 121.472 115.168 114.116 167.92 124.32C161.11 148.093 156.371 172.41 153.756 197C133.753 211.535 115.064 227.798 97.904 245.6C94.008 241.104 90.368 236.635 86.984 232.192C87.204 231.984 87.44 231.792 87.656 231.58C93.4626 225.763 96.7238 217.879 96.7238 209.66C96.7238 201.441 93.4626 193.557 87.656 187.74V187.752ZM62.856 367.5C49.6 344.492 62.728 307.016 97.924 266.4C115.079 284.208 133.762 300.477 153.76 315.02C156.373 339.609 161.11 363.925 167.92 387.696C115.164 397.888 76.152 390.536 62.864 367.5H62.856ZM324.02 456.16C321.238 458.951 317.574 460.691 313.653 461.082C309.732 461.474 305.797 460.494 302.517 458.309C299.238 456.124 296.818 452.869 295.671 449.099C294.523 445.33 294.718 441.278 296.222 437.636C297.727 433.994 300.448 430.987 303.922 429.127C307.396 427.267 311.408 426.67 315.273 427.436C319.138 428.203 322.618 430.287 325.119 433.332C327.62 436.377 328.987 440.195 328.988 444.136C328.989 448.644 327.203 452.968 324.02 456.16ZM312.02 413.148C306.12 413.148 300.343 414.831 295.368 418.001C290.392 421.171 286.425 425.695 283.932 431.042C281.439 436.389 280.525 442.336 281.295 448.185C282.066 454.034 284.491 459.542 288.284 464.06C277.884 473.968 267.052 479 256.02 479C229.468 479 203.568 448.884 185.96 398.1C209.962 392.133 233.404 384.103 256.024 374.1C278.646 384.105 302.091 392.135 326.096 398.1C324.136 403.72 322.096 409.1 319.96 414.2C317.363 413.507 314.688 413.153 312 413.148H312.02ZM449.156 367.5C435.864 390.54 396.852 397.9 344.1 387.696C350.91 363.924 355.649 339.606 358.264 315.016C378.254 300.474 396.93 284.206 414.076 266.4C449.272 307.016 462.4 344.492 449.136 367.5H449.156Z" fill="white"/>
</svg>
