<svg width="512" height="512" viewBox="0 0 512 512" fill="none" xmlns="http://www.w3.org/2000/svg">
<g clip-path="url(#clip0_1798_8631)">
<path d="M499.611 33.095C491.985 25.469 478.367 32.341 458.87 45.9C458.86 45.907 458.848 45.915 458.838 45.922C452.131 32.236 438.081 23.1 422.171 23.1H275.173V7.5C275.173 3.358 271.815 0 267.673 0H204.553C200.411 0 197.053 3.358 197.053 7.5V23.1H50.05C27.536 23.1 9.22 41.412 9.22 63.92V319.88C9.22 342.394 27.536 360.71 50.05 360.71H137.254L105.251 502.853C104.751 505.076 105.288 507.406 106.711 509.185C108.134 510.965 110.289 512 112.568 512H164.674C168.181 512 171.22 509.569 171.991 506.147L204.736 360.709H267.49L300.235 506.147C301.006 509.569 304.045 512 307.552 512H359.648C361.926 512 364.082 510.964 365.505 509.185C366.928 507.406 367.465 505.076 366.965 502.853L334.962 360.71H355.42C359.562 360.71 362.92 357.352 362.92 353.21C362.92 349.068 359.562 345.71 355.42 345.71H50.05C35.807 345.71 24.22 334.123 24.22 319.88V63.92C24.22 49.683 35.807 38.1 50.05 38.1H422.17C433.151 38.1 442.729 44.969 446.403 54.948C439.55 60.096 431.96 66.046 423.655 72.783C418.588 62.736 408.142 55.79 396.24 55.79H73.921C57.009 55.79 43.251 69.544 43.251 86.45V107.55C43.251 111.692 46.609 115.05 50.751 115.05C54.893 115.05 58.251 111.692 58.251 107.55V86.45C58.251 77.815 65.28 70.79 73.921 70.79H135.354C132.094 75.186 129.275 80.165 126.971 85.638C122.346 96.621 120.037 109.117 120.471 120.823C121.117 138.24 127.621 151.575 138.316 157.408C143.866 160.435 149.691 161.77 155.731 161.77C178.863 161.768 205.095 142.181 230.634 123.108C254.94 104.957 280.071 86.187 289.896 96.013C293.924 100.041 292.071 110.659 284.679 125.911C276.672 142.432 263.314 162.382 250.396 181.674C237.322 201.199 224.974 219.642 217.37 235.325C213.659 242.979 202.366 266.272 217.72 277.169C224.26 281.81 231.091 283.724 237.913 283.724C267.542 283.722 296.976 247.618 301.4 241.968C303.243 240.693 310.252 239.802 315.424 239.147C333.671 236.835 361.126 233.338 375.952 205.087C379.15 201.635 393.774 185.795 411.911 165.322V201.913C411.324 226.864 396.56 248.548 384.261 262.355C369.968 278.4 350.804 293.133 331.466 303H137.09C136.142 295.943 141.668 286.271 147.912 275.344C158 257.689 170.556 235.716 159.709 212.745C154.281 201.25 143.078 194.676 126.411 193.204C113.405 192.055 98.692 194.017 85.711 195.748C76.308 197.002 62.365 198.859 58.251 197.327V137.55C58.251 133.408 54.893 130.05 50.751 130.05C46.609 130.05 43.251 133.408 43.251 137.55V287.33C43.251 304.242 57.009 318 73.921 318H396.241C413.153 318 426.911 304.242 426.911 287.33V202.163C426.912 202.135 426.913 202.107 426.914 202.08H426.911V148.226C432.202 142.134 437.594 135.857 442.931 129.543C444.665 127.491 446.35 125.484 448.012 123.498V319.88C448.012 334.123 436.42 345.71 422.172 345.71H385.422C381.28 345.71 377.922 349.068 377.922 353.21C377.922 357.352 381.28 360.71 385.422 360.71H422.172C444.691 360.71 463.012 342.394 463.012 319.88V105.226C472.733 93.124 480.701 82.617 486.807 73.836C500.366 54.338 507.237 40.722 499.611 33.095V33.095ZM212.053 15H260.173V23.095H212.053V15ZM158.675 497H121.945L152.63 360.71H189.36L158.675 497ZM350.272 497H313.552L282.867 360.71H319.587L350.272 497ZM58.251 287.33V212.55C65.78 213.529 75.662 212.222 87.694 210.617C110.505 207.575 138.892 203.789 146.146 219.15C153.657 235.056 144.116 251.754 134.889 267.901C128.214 279.583 121.371 291.562 121.989 302.999H73.921C65.28 303 58.251 295.971 58.251 287.33V287.33ZM411.91 287.33C411.91 295.971 404.881 303 396.24 303H360.529C373.446 294.036 385.536 283.473 395.461 272.331C401.907 265.094 407.399 257.675 411.91 250.164V287.33ZM226.4 264.937C223.27 262.716 224.94 254.093 230.865 241.87C238.015 227.123 250.082 209.101 262.859 190.02C292.198 146.203 319.91 104.815 300.502 85.406C291.607 76.511 278.862 75.974 262.622 83.817C250.05 89.887 236.259 100.186 221.659 111.089C199.092 127.942 174.02 146.668 155.661 146.666C151.979 146.666 148.566 145.912 145.498 144.239C139.738 141.097 135.892 131.911 135.46 120.266C134.606 97.237 145.35 78.924 156.273 70.789H396.24C403.568 70.789 409.807 75.943 411.465 82.808C408.76 85.061 405.993 87.384 403.163 89.776C367.512 119.912 332.915 151.848 327.617 156.756C299.368 171.582 295.871 199.036 293.56 217.283C292.884 222.619 291.958 229.927 290.638 231.462C290.632 231.468 290.626 231.473 290.621 231.479C290.613 231.487 290.604 231.496 290.597 231.504C290.37 231.734 290.168 231.979 289.977 232.23L289.972 232.226C289.586 232.732 250.857 282.291 226.4 264.937V264.937ZM369.574 189.875L342.831 163.132C347.757 158.608 355.579 151.467 365.139 142.891L389.815 167.567C381.239 177.126 374.098 184.949 369.574 189.875ZM313.538 224.266C311.488 224.526 309.526 224.774 307.66 225.047C307.933 223.181 308.181 221.219 308.441 219.17C310.449 203.318 312.924 183.887 330.761 172.275L360.432 201.946C348.82 219.782 329.388 222.257 313.538 224.266V224.266ZM426.746 125.428C417.524 136.241 408.272 146.82 399.816 156.355L376.351 132.89C385.875 124.444 396.442 115.202 407.245 105.989C456.007 64.402 477.056 51.076 485.85 46.857C481.631 55.648 468.31 76.69 426.746 125.428V125.428Z" fill="white"/>
</g>
<defs>
<clipPath id="clip0_1798_8631">
<rect width="512" height="512" fill="white"/>
</clipPath>
</defs>
</svg>
