<svg width="512" height="512" viewBox="0 0 512 512" fill="none" xmlns="http://www.w3.org/2000/svg">
<path d="M486.4 25.6C159.2 -47.1 -47.1 159.2 25.6 486.4V486.4C352.8 559.1 559.1 352.8 486.4 25.6V25.6ZM425.7 57.9L340.5 143.1L228.5 141.3C217.5 141.4 208.3 150 208.1 161C207.9 172.1 216.8 181.2 227.8 181.4L300.9 182.6L216.6 266.9L104.7 265.1C104.6 265.1 104.5 265.1 104.4 265.1C93.5 265.1 84.5 273.9 84.4 284.8C84.2 295.9 93.1 305 104.1 305.2L177.2 306.4L57.9 425.7C18.7 178.1 178.1 18.7 425.7 57.9V57.9ZM86.3 454.1L205.7 334.7L206.9 407.8C207.1 418.8 216 427.5 226.9 427.5C227 427.5 227.1 427.5 227.2 427.5C238.3 427.3 247.1 418.2 246.9 407.1L245.1 295.2L329.3 211L330.5 284C330.7 295 339.6 303.7 350.5 303.7C350.6 303.7 350.7 303.7 350.8 303.7C361.9 303.5 370.7 294.4 370.5 283.3L368.7 171.5L453.9 86.2999C493.3 333.9 333.9 493.3 86.3 454.1V454.1Z" fill="black"/>
</svg>
