<?xml version='1.0' encoding='iso-8859-1'?>
<!DOCTYPE svg PUBLIC '-//W3C//DTD SVG 1.1//EN' 'http://www.w3.org/Graphics/SVG/1.1/DTD/svg11.dtd'>
<svg version="1.1" xmlns="http://www.w3.org/2000/svg" viewBox="0 0 471.014 471.014" xmlns:xlink="http://www.w3.org/1999/xlink" enable-background="new 0 0 471.014 471.014">
  <g>
    <path d="m245.507,471.014v-81.487c51.225-30.57 86.269-57.449 110.022-84.348 25.452-28.822 38.195-58.58 38.958-90.974l.141-5.959-5.176-2.958c-0.79-0.451-17.505-9.81-47.763-12.103 13.265-18.502 29.643-51.062 22.814-93.277l-.818-5.056-4.581-2.291c-0.624-0.312-15.513-7.632-37.104-7.632-8.735,0-17.36,1.178-25.778,3.514-0.673-6.885-2.075-15.67-4.937-25.126-8.642-28.565-26.48-49.79-51.587-61.381l-4.191-1.936-4.191,1.935c-25.106,11.591-42.945,32.816-51.587,61.381-2.86,9.456-4.263,18.24-4.936,25.126-8.418-2.336-17.044-3.514-25.779-3.514-21.587,0-36.479,7.32-37.103,7.632l-4.581,2.291-.818,5.057c-6.831,42.215 9.547,74.775 22.812,93.277-30.255,2.294-46.972,11.651-47.762,12.103l-5.176,2.958 .141,5.96c0.762,32.394 13.505,62.152 38.958,90.974 23.753,26.898 58.798,53.777 110.023,84.348v81.487h19.999zm-148.638-250.73c7.684-2.959 23.351-7.604 45.97-7.604 2.464,0 4.986,0.055 7.495,0.164l27.878,1.213-20.763-18.644c-0.389-0.35-37.54-34.393-31.94-86.764 4.843-1.611 13.161-3.721 23.504-3.721 10.682,0 21.185,2.233 31.217,6.637l14.895,6.539-.89-16.243c-0.031-0.575-2.538-56.061 41.275-79.676 17.613,9.463 29.863,25.027 36.45,46.331 5.52,17.85 4.824,33.216 4.817,33.346l-.89,16.242 14.895-6.539c10.032-4.404 20.535-6.637 31.217-6.637 10.324,0 18.658,2.116 23.509,3.728 2.272,21.061-1.999,41.59-12.729,61.107-8.896,16.184-19.135,25.576-19.217,25.65l-20.762,18.644 27.878-1.213c2.509-0.109 5.03-0.164 7.495-0.164 22.638,0 38.31,4.652 45.97,7.601-4.133,49.539-42.296,92.871-128.638,145.867v-61.141l45.125-47.508-14.502-13.773-30.623,32.241v-61.519l45.125-47.508-14.502-13.773-30.623,32.24v-54.852h-19.999v54.852l-30.623-32.24-14.501,13.773 45.124,47.507v61.518l-30.623-32.24-14.501,13.773 45.124,47.507v61.142c-86.335-52.994-124.5-96.329-128.637-145.863z"/>
  </g>
</svg>
