<svg width="512" height="512" viewBox="0 0 512 512" fill="none" xmlns="http://www.w3.org/2000/svg">
<path d="M495.6 31.44C495.371 27.5257 493.713 23.8316 490.941 21.0591C488.168 18.2866 484.474 16.6286 480.56 16.4C471.328 15.856 252.56 4.44801 132.688 124.336C100.801 156.181 82.0072 198.821 80.0138 243.842C78.0204 288.864 92.9724 332.997 121.92 367.536L20.688 468.688C19.1598 470.164 17.9409 471.929 17.1024 473.882C16.2638 475.834 15.8224 477.933 15.804 480.058C15.7855 482.182 16.1903 484.289 16.9948 486.255C17.7993 488.222 18.9874 490.008 20.4897 491.51C21.9919 493.013 23.7784 494.201 25.7447 495.005C27.7111 495.81 29.8179 496.215 31.9424 496.196C34.0669 496.178 36.1664 495.736 38.1185 494.898C40.0705 494.059 41.836 492.84 43.312 491.312L144.544 390.08C179.078 419.005 223.194 433.943 268.197 431.95C313.2 429.956 355.823 411.176 387.664 379.312C507.552 259.424 496.144 40.688 495.6 31.44V31.44ZM365.04 356.688C339.167 382.496 304.683 397.855 268.192 399.824C231.7 401.794 195.764 390.234 167.264 367.36L214.624 320H304C308.243 320 312.313 318.314 315.314 315.314C318.314 312.313 320 308.243 320 304C320 299.757 318.314 295.687 315.314 292.686C312.313 289.686 308.243 288 304 288H246.624L267.312 267.312L379.312 155.312C382.227 152.294 383.839 148.253 383.803 144.058C383.766 139.862 382.084 135.849 379.117 132.883C376.151 129.916 372.138 128.234 367.942 128.197C363.747 128.161 359.706 129.773 356.688 132.688L272 217.376V160C272 155.757 270.314 151.687 267.314 148.686C264.313 145.686 260.243 144 256 144C251.757 144 247.687 145.686 244.686 148.686C241.686 151.687 240 155.757 240 160V249.376L196.688 292.688L144.64 344.736C121.766 316.236 110.206 280.3 112.176 243.808C114.145 207.317 129.504 172.833 155.312 146.96C248.096 54.176 413.76 47.568 464 48C464.288 98.064 457.824 263.904 365.04 356.688V356.688Z" fill="white"/>
</svg>
