<svg width="512" height="512" viewBox="0 0 512 512" fill="none" xmlns="http://www.w3.org/2000/svg">
<path d="M353.002 344.116C349.057 340.251 342.726 340.316 338.86 344.26L338.576 344.55C334.711 348.495 334.776 354.826 338.721 358.692C340.667 360.599 343.194 361.549 345.719 361.549C348.312 361.549 350.904 360.546 352.863 358.548L353.147 358.258C357.012 354.313 356.947 347.982 353.002 344.116Z" fill="white"/>
<path d="M460.575 239.276H434.001V212.702C434.001 207.179 429.524 202.702 424.001 202.702C418.478 202.702 414.001 207.179 414.001 212.702V239.276H387.427C381.904 239.276 377.427 243.753 377.427 249.276C377.427 254.799 381.904 259.276 387.427 259.276H414.001V285.85C414.001 291.373 418.478 295.85 424.001 295.85C429.524 295.85 434.001 291.373 434.001 285.85V259.276H460.575C466.098 259.276 470.575 254.799 470.575 249.276C470.575 243.753 466.098 239.276 460.575 239.276Z" fill="white"/>
<path d="M456.694 167.577C447.354 98.5469 389.646 46.8989 321.149 46.8989C286.572 46.8989 254.227 59.7879 229 83.4129C203.772 59.7879 171.427 46.8989 136.851 46.8989C61.391 46.8989 0 109.752 0 187.009C0 202.273 4.453 219.382 13.312 238.268H10C4.477 238.268 0 242.745 0 248.268C0 253.791 4.477 258.268 10 258.268H23.962C42.639 289.888 72.175 325.845 112.449 365.891C167.029 420.162 222.373 462.621 222.926 463.044C224.718 464.415 226.859 465.1 229 465.1C231.141 465.1 233.281 464.415 235.074 463.044C235.496 462.721 277.824 430.263 324.732 386.037C328.751 382.248 328.937 375.919 325.148 371.901C321.36 367.883 315.031 367.696 311.012 371.485C275.238 405.214 242.211 431.957 229.001 442.405C213.303 429.985 169.601 394.532 126.408 351.567C91.828 317.168 65.356 285.82 47.459 258.268H136.985C141.446 258.268 145.367 255.313 146.597 251.026L164.069 190.124L212.453 345.142C213.757 349.318 217.624 352.163 221.999 352.163C226.374 352.163 230.241 349.318 231.544 345.142L258.339 259.269H302.983C308.506 259.269 312.983 254.792 312.983 249.269C312.983 243.746 308.506 239.269 302.983 239.269H250.984C246.609 239.269 242.741 242.113 241.438 246.29L221.996 308.595L173.21 152.289C171.894 148.072 167.976 145.208 163.548 145.269C159.131 145.32 155.27 148.264 154.051 152.511L129.448 238.269H35.624C25.287 218.753 20 201.552 20 187.009C20 120.78 72.419 66.8989 136.851 66.8989C169.235 66.8989 199.351 80.2109 221.65 104.381C223.544 106.433 226.208 107.6 229 107.6C231.792 107.6 234.457 106.433 236.35 104.381C258.649 80.2109 288.765 66.8989 321.149 66.8989C376.856 66.8989 424.217 107.073 435.474 162.024C431.717 161.533 427.888 161.276 423.999 161.276C375.476 161.276 335.999 200.753 335.999 249.276C335.999 297.799 375.476 337.276 423.999 337.276C472.522 337.276 511.999 297.799 511.999 249.276C512 212.3 489.075 180.582 456.694 167.577ZM424 317.276C386.505 317.276 356 286.771 356 249.276C356 211.781 386.505 181.276 424 181.276C461.495 181.276 492 211.781 492 249.276C492 286.771 461.495 317.276 424 317.276Z" fill="white"/>
</svg>
