<svg width="31" height="30" viewBox="0 0 31 30" fill="none" xmlns="http://www.w3.org/2000/svg">
<path d="M30.0274 1.93916C29.5639 1.49232 28.7361 1.89498 27.551 2.68945C27.5504 2.68986 27.5497 2.69033 27.5491 2.69074C27.1414 1.88883 26.2874 1.35352 25.3204 1.35352H16.3854V0.439453C16.3854 0.196758 16.1813 0 15.9295 0H12.0929C11.8411 0 11.637 0.196758 11.637 0.439453V1.35352H2.70174C1.33327 1.35352 0.219971 2.42648 0.219971 3.74531V18.743C0.219971 20.0621 1.33327 21.1354 2.70174 21.1354H8.00225L6.05702 29.464C6.02663 29.5943 6.05927 29.7308 6.14576 29.8351C6.23226 29.9394 6.36324 30 6.50177 30H9.66892C9.88209 30 10.0668 29.8576 10.1137 29.6571L12.104 21.1353H15.9184L17.9087 29.6571C17.9556 29.8576 18.1403 30 18.3535 30H21.52C21.6585 30 21.7895 29.9393 21.876 29.8351C21.9625 29.7308 21.9952 29.5943 21.9648 29.464L20.0195 21.1354H21.263C21.5148 21.1354 21.7189 20.9386 21.7189 20.6959C21.7189 20.4532 21.5148 20.2564 21.263 20.2564H2.70174C1.83601 20.2564 1.13171 19.5775 1.13171 18.743V3.74531C1.13171 2.91111 1.83601 2.23242 2.70174 2.23242H25.3203C25.9877 2.23242 26.5699 2.6349 26.7932 3.21961C26.3767 3.52125 25.9154 3.86988 25.4106 4.26463C25.1026 3.67594 24.4676 3.26895 23.7442 3.26895H4.15269C3.12473 3.26895 2.28848 4.07484 2.28848 5.06543V6.30176C2.28848 6.54445 2.49258 6.74121 2.74435 6.74121C2.99611 6.74121 3.20022 6.54445 3.20022 6.30176V5.06543C3.20022 4.55947 3.62746 4.14785 4.15269 4.14785H7.88677C7.68862 4.40543 7.51727 4.69717 7.37722 5.01785C7.0961 5.66139 6.95575 6.39357 6.98213 7.07947C7.0214 8.1 7.41673 8.88135 8.06681 9.22313C8.40415 9.40049 8.75821 9.47871 9.12534 9.47871C10.5314 9.47859 12.1258 8.33092 13.6782 7.21336C15.1556 6.14982 16.6831 5.05002 17.2803 5.62576C17.5251 5.86178 17.4125 6.48393 16.9632 7.3776C16.4765 8.34563 15.6646 9.51457 14.8794 10.645C14.0847 11.789 13.3341 12.8696 12.8719 13.7886C12.6464 14.2371 11.96 15.6019 12.8932 16.2404C13.2907 16.5123 13.7059 16.6245 14.1206 16.6245C15.9215 16.6243 17.7106 14.5089 17.9795 14.1778C18.0916 14.1031 18.5176 14.0509 18.832 14.0125C19.9411 13.8771 21.6099 13.6721 22.511 12.0168C22.7054 11.8146 23.5943 10.8864 24.6967 9.68684V11.8308C24.661 13.2928 23.7636 14.5634 23.0161 15.3724C22.1473 16.3125 20.9825 17.1758 19.807 17.7539H7.99229C7.93466 17.3404 8.27055 16.7737 8.65008 16.1334C9.26326 15.099 10.0264 13.8115 9.36714 12.4655C9.03721 11.792 8.35625 11.4068 7.34319 11.3205C6.55264 11.2532 5.65834 11.3682 4.86932 11.4696C4.29778 11.5431 3.45028 11.6519 3.20022 11.5621V8.05957C3.20022 7.81688 2.99611 7.62012 2.74435 7.62012C2.49258 7.62012 2.28848 7.81688 2.28848 8.05957V16.8357C2.28848 17.8267 3.12473 18.6328 4.15269 18.6328H23.7442C24.7722 18.6328 25.6085 17.8267 25.6085 16.8357V11.8455C25.6085 11.8438 25.6086 11.8422 25.6086 11.8406H25.6085V8.68512C25.9301 8.32816 26.2578 7.96037 26.5822 7.59041C26.6876 7.47018 26.79 7.35258 26.891 7.23621V18.743C26.891 19.5775 26.1864 20.2564 25.3204 20.2564H23.0866C22.8349 20.2564 22.6308 20.4532 22.6308 20.6959C22.6308 20.9386 22.8349 21.1354 23.0866 21.1354H25.3204C26.6892 21.1354 27.8028 20.0621 27.8028 18.743V6.16559C28.3937 5.45648 28.878 4.84084 29.2491 4.32633C30.0733 3.18387 30.4909 2.38605 30.0274 1.93916V1.93916ZM12.5488 0.878906H15.4736V1.35322H12.5488V0.878906ZM9.30429 29.1211H7.07173L8.93685 21.1354H11.1694L9.30429 29.1211ZM20.9501 29.1211H18.7182L16.853 21.1354H19.085L20.9501 29.1211ZM3.20022 16.8357V12.4541C3.65785 12.5115 4.25851 12.4349 4.98985 12.3408C6.37637 12.1626 8.10182 11.9408 8.54274 12.8408C8.99928 13.7728 8.41935 14.7512 7.8585 15.6973C7.45278 16.3818 7.03684 17.0837 7.0744 17.7538H4.15269C3.62746 17.7539 3.20022 17.342 3.20022 16.8357V16.8357ZM24.6967 16.8357C24.6967 17.342 24.2694 17.7539 23.7442 17.7539H21.5736C22.3587 17.2287 23.0936 16.6097 23.6968 15.9569C24.0886 15.5329 24.4225 15.0981 24.6967 14.658V16.8357ZM13.4208 15.5237C13.2306 15.3935 13.3321 14.8883 13.6922 14.1721C14.1268 13.308 14.8603 12.252 15.6369 11.134C17.4202 8.56658 19.1046 6.1415 17.925 5.00426C17.3843 4.48307 16.6096 4.4516 15.6225 4.91115C14.8583 5.26682 14.0201 5.87027 13.1326 6.50912C11.761 7.4966 10.237 8.59383 9.12109 8.59371C8.89728 8.59371 8.68983 8.54953 8.50335 8.4515C8.15324 8.2674 7.91947 7.72916 7.89321 7.04684C7.8413 5.69748 8.49435 4.62445 9.15829 4.14779H23.7442C24.1896 4.14779 24.5688 4.44979 24.6696 4.85203C24.5052 4.98404 24.337 5.12016 24.165 5.26031C21.998 7.02609 19.8951 8.89734 19.5731 9.18492C17.856 10.0536 17.6435 11.6623 17.503 12.7314C17.4619 13.0441 17.4056 13.4723 17.3254 13.5622C17.325 13.5626 17.3247 13.5629 17.3244 13.5632C17.3239 13.5637 17.3233 13.5642 17.3229 13.5647C17.3091 13.5782 17.2968 13.5925 17.2852 13.6072L17.2849 13.607C17.2614 13.6366 14.9074 16.5405 13.4208 15.5237V15.5237ZM22.1234 11.1255L20.4978 9.55852C20.7972 9.29344 21.2727 8.87502 21.8538 8.37252L23.3537 9.81838C22.8324 10.3785 22.3983 10.8369 22.1234 11.1255ZM18.7173 13.1406C18.5927 13.1558 18.4735 13.1704 18.36 13.1863C18.3766 13.077 18.3917 12.9621 18.4075 12.842C18.5296 11.9132 18.68 10.7746 19.7642 10.0942L21.5677 11.8328C20.8619 12.8779 19.6807 13.0229 18.7173 13.1406V13.1406ZM25.5984 7.3493C25.0379 7.98287 24.4755 8.60273 23.9615 9.16143L22.5353 7.78652C23.1142 7.29164 23.7565 6.75012 24.4131 6.21029C27.377 3.77355 28.6564 2.99273 29.1909 2.74553C28.9345 3.26062 28.1248 4.49355 25.5984 7.3493V7.3493Z" fill="white"/>
</svg>
