<svg width="512" height="512" viewBox="0 0 512 512" fill="none" xmlns="http://www.w3.org/2000/svg">
<g clip-path="url(#clip0_1797_8576)">
<path d="M168.697 146.399C110.838 146.399 63.9331 193.303 63.9331 251.162C63.9331 309.021 110.838 355.926 168.697 355.926C226.556 355.926 273.461 309.021 273.461 251.162C273.461 193.303 226.556 146.399 168.697 146.399ZM246.23 211.876H208.473C204.862 193.782 199.222 179.158 193.464 167.875C216.536 174.76 235.475 190.758 246.23 211.876ZM194.888 251.162C194.888 258.956 194.304 266.116 193.502 272.988H143.895C143.09 266.116 142.505 258.955 142.505 251.162C142.505 243.365 143.08 236.206 143.878 229.337H193.519C194.313 236.206 194.888 243.366 194.888 251.162ZM166.156 164.115C167.017 164.089 167.827 163.859 168.697 163.859C169.575 163.859 170.388 164.094 171.263 164.119C177.815 174.171 185.782 190.072 190.607 211.876H146.789C151.637 189.997 159.634 174.103 166.156 164.115ZM143.93 167.875C138.192 179.134 132.548 193.775 128.934 211.876H91.1641C101.92 190.758 120.859 174.764 143.93 167.875ZM81.3938 251.162C81.3938 243.582 82.6684 236.354 84.493 229.337H126.282C125.553 236.251 125.045 243.443 125.045 251.162C125.045 258.886 125.566 266.069 126.307 272.988H84.493C82.6684 265.971 81.3938 258.742 81.3938 251.162ZM91.1641 290.449H128.976C132.625 308.583 138.273 323.333 143.905 334.442C120.846 327.553 101.915 311.559 91.1641 290.449ZM171.233 338.21C170.372 338.236 169.567 338.465 168.697 338.465C167.827 338.465 167.022 338.235 166.156 338.21C159.899 328.585 151.748 312.648 146.812 290.449H190.584C185.654 312.634 177.512 328.563 171.233 338.21ZM193.498 334.442C199.137 323.322 204.781 308.584 208.422 290.449H246.23C235.478 311.556 216.551 327.549 193.498 334.442ZM211.091 272.988C211.829 266.069 212.348 258.886 212.348 251.162C212.348 243.443 211.845 236.251 211.116 229.337H252.901C254.725 236.354 256 243.583 256 251.162C256 258.742 254.725 265.971 252.901 272.988H211.091Z" fill="white"/>
<path d="M256 408.308H81.3938V425.768H256V408.308Z" fill="white"/>
<path d="M377.556 282.533L368.515 316.264L385.38 320.784L394.421 287.054L377.556 282.533Z" fill="white"/>
<path d="M359.473 349.964L327.843 468.017L344.708 472.536L376.339 354.482L359.473 349.964Z" fill="white"/>
<path d="M474.556 55.4287L272.17 1.19824C269.142 0.387408 266.102 0 263.111 0C247.692 0.00109129 233.583 10.2909 229.401 25.8919L211.148 94.0167H29.0119C19.3693 94.0167 11.5513 101.834 11.5513 111.477V460.69C11.5513 470.334 19.3693 478.15 29.0119 478.15H230.683L352.541 510.802C355.568 511.613 358.606 512 361.6 512C377.019 512 391.128 501.709 395.31 486.108L499.25 98.1975C504.243 79.5692 493.185 60.4203 474.556 55.4287ZM29.0119 460.69V111.477H290.921C300.551 111.477 308.382 119.311 308.382 128.938V443.229C308.382 452.857 300.551 460.69 290.921 460.69H29.0119ZM482.387 93.6784L378.446 481.589C376.4 489.215 369.473 494.54 361.599 494.54C360.082 494.54 358.555 494.338 357.059 493.936L296.173 477.621C312.946 475.073 325.841 460.717 325.841 443.23V304.807L334.785 307.203L343.826 273.472L326.958 268.953L325.841 273.126V134.369C331.285 135.828 337.568 137.512 343.66 139.145L364.309 206.654L378.765 210.528L377.396 148.184C386.889 150.729 396.583 153.325 402.934 155.027L414.158 174.82L423.797 177.402L422.139 149.844L437.354 126.806L427.715 124.224L408.102 135.753C401.746 134.052 392.056 131.454 382.559 128.91L414.918 75.6045L400.463 71.7304L348.826 119.872C338.672 117.151 327.593 114.18 321.591 112.574C315.709 101.58 304.255 94.0178 290.92 94.0178H229.22L246.262 30.4131C248.309 22.7883 255.236 17.4628 263.11 17.4617C264.627 17.4617 266.153 17.6647 267.649 18.0663L470.037 72.2968C474.543 73.5038 478.306 76.3935 480.639 80.4324C482.972 84.4701 483.593 89.1747 482.387 93.6784Z" fill="white"/>
<path d="M373.011 236.379L368.544 253.259L385.137 257.649L389.603 240.77L373.011 236.379Z" fill="white"/>
<path d="M406.15 245.185L401.684 262.063L418.276 266.453L422.742 249.575L406.15 245.185Z" fill="white"/>
<path d="M339.873 227.603L335.407 244.481L351.999 248.871L356.466 231.993L339.873 227.603Z" fill="white"/>
</g>
<defs>
<clipPath id="clip0_1797_8576">
<rect width="512" height="512" fill="white"/>
</clipPath>
</defs>
</svg>
