<svg width="619" height="12" viewBox="0 0 619 12" fill="none" xmlns="http://www.w3.org/2000/svg">
<path d="M618.774 5.98528L613.009 0.202581L607.227 5.96687L612.991 11.7496L618.774 5.98528ZM0.998405 6L2.98542 6.00317L2.98861 4.00317L1.00159 4L0.998405 6ZM6.95944 6.00951L10.9335 6.01584L10.9367 4.01585L6.96263 4.00951L6.95944 6.00951ZM14.9075 6.02218L18.8815 6.02852L18.8847 4.02852L14.9107 4.02218L14.9075 6.02218ZM22.8555 6.03486L26.8296 6.0412L26.8328 4.0412L22.8587 4.03486L22.8555 6.03486ZM30.8036 6.04753L34.7776 6.05387L34.7808 4.05388L30.8068 4.04754L30.8036 6.04753ZM38.7517 6.06021L42.7257 6.06655L42.7289 4.06655L38.7548 4.06021L38.7517 6.06021ZM46.6997 6.07289L50.6737 6.07923L50.6769 4.07923L46.7029 4.07289L46.6997 6.07289ZM54.6477 6.08556L58.6218 6.0919L58.625 4.0919L54.6509 4.08557L54.6477 6.08556ZM62.5958 6.09824L66.5698 6.10458L66.573 4.10458L62.599 4.09824L62.5958 6.09824ZM70.5439 6.11092L74.5179 6.11725L74.5211 4.11726L70.547 4.11092L70.5439 6.11092ZM78.4919 6.12359L82.4659 6.12993L82.4691 4.12993L78.4951 4.1236L78.4919 6.12359ZM86.4399 6.13627L90.414 6.14261L90.4172 4.14261L86.4431 4.13627L86.4399 6.13627ZM94.388 6.14895L98.362 6.15528L98.3652 4.15529L94.3912 4.14895L94.388 6.14895ZM102.336 6.16162L106.31 6.16796L106.313 4.16796L102.339 4.16162L102.336 6.16162ZM110.284 6.1743L114.258 6.18064L114.261 4.18064L110.287 4.1743L110.284 6.1743ZM118.232 6.18697L122.206 6.19331L122.209 4.19332L118.235 4.18698L118.232 6.18697ZM126.18 6.19965L130.154 6.20599L130.157 4.20599L126.183 4.19965L126.18 6.19965ZM134.128 6.21233L138.102 6.21867L138.105 4.21867L134.131 4.21233L134.128 6.21233ZM142.076 6.225L146.05 6.23134L146.054 4.23134L142.079 4.22501L142.076 6.225ZM150.024 6.23768L153.998 6.24402L154.002 4.24402L150.028 4.23768L150.024 6.23768ZM157.972 6.25036L161.946 6.25669L161.95 4.2567L157.976 4.25036L157.972 6.25036ZM165.92 6.26303L169.894 6.26937L169.898 4.26937L165.924 4.26303L165.92 6.26303ZM173.868 6.27571L177.843 6.28205L177.846 4.28205L173.872 4.27571L173.868 6.27571ZM181.817 6.28838L185.791 6.29472L185.794 4.29473L181.82 4.28839L181.817 6.28838ZM189.765 6.30106L193.739 6.3074L193.742 4.3074L189.768 4.30106L189.765 6.30106ZM197.713 6.31374L201.687 6.32008L201.69 4.32008L197.716 4.31374L197.713 6.31374ZM205.661 6.32641L209.635 6.33275L209.638 4.33275L205.664 4.32642L205.661 6.32641ZM213.609 6.33909L217.583 6.34543L217.586 4.34543L213.612 4.33909L213.609 6.33909ZM221.557 6.35177L225.531 6.3581L225.534 4.35811L221.56 4.35177L221.557 6.35177ZM229.505 6.36444L233.479 6.37078L233.482 4.37078L229.508 4.36445L229.505 6.36444ZM237.453 6.37712L241.427 6.38346L241.43 4.38346L237.456 4.37712L237.453 6.37712ZM245.401 6.3898L249.375 6.39613L249.378 4.39614L245.404 4.3898L245.401 6.3898ZM253.349 6.40247L257.323 6.40881L257.326 4.40881L253.352 4.40247L253.349 6.40247ZM261.297 6.41515L265.271 6.42149L265.274 4.42149L261.3 4.41515L261.297 6.41515ZM269.245 6.42782L273.219 6.43416L273.222 4.43417L269.248 4.42783L269.245 6.42782ZM277.193 6.4405L281.167 6.44684L281.17 4.44684L277.196 4.4405L277.193 6.4405ZM285.141 6.45318L289.115 6.45952L289.118 4.45952L285.144 4.45318L285.141 6.45318ZM293.089 6.46585L297.063 6.47219L297.066 4.47219L293.092 4.46586L293.089 6.46585ZM301.037 6.47853L305.011 6.48487L305.014 4.48487L301.04 4.47853L301.037 6.47853ZM308.985 6.49121L312.959 6.49754L312.963 4.49755L308.989 4.49121L308.985 6.49121ZM316.933 6.50388L320.907 6.51022L320.911 4.51022L316.937 4.50388L316.933 6.50388ZM324.881 6.51656L328.855 6.5229L328.859 4.5229L324.885 4.51656L324.881 6.51656ZM332.829 6.52923L336.803 6.53557L336.807 4.53558L332.833 4.52924L332.829 6.52923ZM340.778 6.54191L344.752 6.54825L344.755 4.54825L340.781 4.54191L340.778 6.54191ZM348.726 6.55459L352.7 6.56093L352.703 4.56093L348.729 4.55459L348.726 6.55459ZM356.674 6.56726L360.648 6.5736L360.651 4.5736L356.677 4.56727L356.674 6.56726ZM364.622 6.57994L368.596 6.58628L368.599 4.58628L364.625 4.57994L364.622 6.57994ZM372.57 6.59262L376.544 6.59895L376.547 4.59896L372.573 4.59262L372.57 6.59262ZM380.518 6.60529L384.492 6.61163L384.495 4.61163L380.521 4.6053L380.518 6.60529ZM388.466 6.61797L392.44 6.62431L392.443 4.62431L388.469 4.61797L388.466 6.61797ZM396.414 6.63065L400.388 6.63698L400.391 4.63699L396.417 4.63065L396.414 6.63065ZM404.362 6.64332L408.336 6.64966L408.339 4.64966L404.365 4.64332L404.362 6.64332ZM412.31 6.656L416.284 6.66234L416.287 4.66234L412.313 4.656L412.31 6.656ZM420.258 6.66867L424.232 6.67501L424.235 4.67502L420.261 4.66868L420.258 6.66867ZM428.206 6.68135L432.18 6.68769L432.183 4.68769L428.209 4.68135L428.206 6.68135ZM436.154 6.69403L440.128 6.70037L440.131 4.70037L436.157 4.69403L436.154 6.69403ZM444.102 6.7067L448.076 6.71304L448.079 4.71304L444.105 4.70671L444.102 6.7067ZM452.05 6.71938L456.024 6.72572L456.027 4.72572L452.053 4.71938L452.05 6.71938ZM459.998 6.73206L463.972 6.73839L463.975 4.7384L460.001 4.73206L459.998 6.73206ZM467.946 6.74473L471.92 6.75107L471.924 4.75107L467.949 4.74473L467.946 6.74473ZM475.894 6.75741L479.868 6.76375L479.872 4.76375L475.898 4.75741L475.894 6.75741ZM483.842 6.77008L487.816 6.77642L487.82 4.77643L483.846 4.77009L483.842 6.77008ZM491.79 6.78276L495.764 6.7891L495.768 4.7891L491.794 4.78276L491.79 6.78276ZM499.739 6.79544L503.712 6.80178L503.716 4.80178L499.742 4.79544L499.739 6.79544ZM507.687 6.80811L511.661 6.81445L511.664 4.81445L507.69 4.80812L507.687 6.80811ZM515.635 6.82079L519.609 6.82713L519.612 4.82713L515.638 4.82079L515.635 6.82079ZM523.583 6.83347L527.557 6.8398L527.56 4.83981L523.586 4.83347L523.583 6.83347ZM531.531 6.84614L535.505 6.85248L535.508 4.85248L531.534 4.84615L531.531 6.84614ZM539.479 6.85882L543.453 6.86516L543.456 4.86516L539.482 4.85882L539.479 6.85882ZM547.427 6.8715L551.401 6.87783L551.404 4.87784L547.43 4.8715L547.427 6.8715ZM555.375 6.88417L559.349 6.89051L559.352 4.89051L555.378 4.88417L555.375 6.88417ZM563.323 6.89685L567.297 6.90319L567.301 4.90319L563.326 4.89685L563.323 6.89685ZM571.271 6.90953L575.245 6.91586L575.249 4.91587L571.275 4.90953L571.271 6.90953ZM579.219 6.9222L583.194 6.92854L583.197 4.92854L579.223 4.9222L579.219 6.9222ZM587.168 6.93488L591.142 6.94122L591.145 4.94122L587.171 4.93488L587.168 6.93488ZM595.116 6.94755L599.09 6.95389L599.093 4.95389L595.119 4.94756L595.116 6.94755ZM603.064 6.96023L607.038 6.96657L607.041 4.96657L603.067 4.96023L603.064 6.96023ZM611.012 6.97291L612.998 6.97608L613.002 4.97608L611.015 4.97291L611.012 6.97291Z" fill="#661F1E"/>
</svg>
